PathFileType	4	(X/Y/Z)	/Users/itak/Documents/Research/Walk-IL/dataset/trc/00116_00007.trc
DataRate	CameraRate	NumFrames	NumMarkers	Units	OrigDataRate	OrigDataStartFrame	OrigNumFrames
100.000000	100.000000	4	53	mm	100.000000	403	538
Frame#	Time	RPSI			LPSI			L3			STRN			T10			C7			CLAV			RBAK			LBAK			LSHO			LUPA			LAEL			LAOL			LWTS			LWPS			LFRA			LIFD			LHPS			LHTS			RSHO			RUPA			RAEL			RAOL			RWTS			RWPS			RFRA			RIFD			RHTS			RHPS			RBHD			LFHD			RFHD			LBHD			LHIP			RHIP			RASI			LASI			LKNE			LTHI			LANK			LTIP			LTOE			LMT1			LMT5			LHEE			RKNE			RTHI			RANK			RTIP			RTOE			RMT1			RMT5			RHEE			
		X1	Y1	Z1	X2	Y2	Z2	X3	Y3	Z3	X4	Y4	Z4	X5	Y5	Z5	X6	Y6	Z6	X7	Y7	Z7	X8	Y8	Z8	X9	Y9	Z9	X10	Y10	Z10	X11	Y11	Z11	X12	Y12	Z12	X13	Y13	Z13	X14	Y14	Z14	X15	Y15	Z15	X16	Y16	Z16	X17	Y17	Z17	X18	Y18	Z18	X19	Y19	Z19	X20	Y20	Z20	X21	Y21	Z21	X22	Y22	Z22	X23	Y23	Z23	X24	Y24	Z24	X25	Y25	Z25	X26	Y26	Z26	X27	Y27	Z27	X28	Y28	Z28	X29	Y29	Z29	X30	Y30	Z30	X31	Y31	Z31	X32	Y32	Z32	X33	Y33	Z33	X34	Y34	Z34	X35	Y35	Z35	X36	Y36	Z36	X37	Y37	Z37	X38	Y38	Z38	X39	Y39	Z39	X40	Y40	Z40	X41	Y41	Z41	X42	Y42	Z42	X43	Y43	Z43	X44	Y44	Z44	X45	Y45	Z45	X46	Y46	Z46	X47	Y47	Z47	X48	Y48	Z48	X49	Y49	Z49	X50	Y50	Z50	X51	Y51	Z51	X52	Y52	Z52	X53	Y53	Z53	

404	4.03	-1525.87060546875	1111.217407226562	-252.7560882568359	-1512.950073242188	1120.994506835938	-387.0429077148438	-1523.625732421875	1160.133422851562	-320.4728088378906	-1268.960083007812	1334.988159179688	-300.8652038574219	-1528.694702148438	1314.420288085938	-311.9063415527344	-1451.593505859375	1599.951782226562	-330.5959167480469	-1281.129638671875	1474.55078125	-313.3306579589844	-1532.2822265625	1428.904174804688	-236.9623413085938	-1458.152221679688	1578.882446289062	-432.3741455078125	-1372.58935546875	1551.206665039062	-497.6209411621094	-1409.61328125	1422.374755859375	-564.833251953125	-1431.2353515625	1205.326416015625	-587.1050415039062	-1492.104614257812	1201.458984375	-524.3150634765625	-1374.30126953125	932.9391479492188	-558.1926879882812	-1461.368896484375	922.6203002929688	-576.116943359375	-1435.55859375	1088.444702148438	-594.23095703125	-1397.57373046875	739.8839721679688	-535.8966674804688	-1447.173828125	843.2474365234375	-579.9160766601562	-1377.56298828125	841.5228271484375	-570.323974609375	-1401.241821289062	1583.224731445312	-147.5303497314453	-1423.241455078125	1514.1220703125	-80.00183868408203	-1439.56201171875	1217.777221679688	-45.5451545715332	-1452.314575195312	1213.312133789062	-141.3395080566406	-1283.462280273438	983.624755859375	-56.81290054321289	-1355.767578125	962.0758666992188	-22.34285926818848	-1413.204956054688	1145.23291015625	-28.71067810058594	-1244.20361328125	791.3182373046875	-67.01750946044922	-1245.368286132812	878.18212890625	-47.80825042724609	-1311.99951171875	866.3259887695312	-14.23235321044922	-1402.946899414062	1766.129028320312	-260.0730895996094	-1255.543701171875	1813.14453125	-417.7101440429688	-1240.767456054688	1833.804565429688	-290.1928100585938	-1424.89599609375	1748.907470703125	-392.3913269042969	-1409.439575195312	1036.411743164062	-490.7520446777344	-1417.484130859375	1005.151794433594	-125.1306228637695	-1326.118041992188	1074.93359375	-165.3631286621094	-1306.033813476562	1092.142333984375	-428.2687377929688	-1234.543579101562	559.0169677734375	-463.3168640136719	-1306.374389648438	688.4284057617188	-495.1996459960938	-1214.893676757812	43.09366989135742	-468.3401184082031	-1266.970703125	294.3660583496094	-494.6196594238281	-992.2147827148438	96.47952270507812	-428.2034606933594	-1064.9501953125	78.66677856445312	-388.7213134765625	-1095.496948242188	67.47395324707031	-498.9625244140625	-1277.748413085938	28.91287422180176	-400.951171875	-1444.459838867188	512.4031372070312	-180.9345092773438	-1406.104125976562	791.1969604492188	-139.5068969726562	-1646.1943359375	31.00448799133301	-217.9228363037109	-1495.270751953125	381.1097412109375	-175.9517517089844	-1412.025756835938	42.92876052856445	-253.9317321777344	-1467.2978515625	28.92627334594727	-297.1983337402344	-1511.673095703125	38.7724494934082	-185.8223724365234	-1700.384399414062	36.13709259033203	-272.185791015625	
405	4.04	-1533.124877929688	1112.163208007812	-251.9001922607422	-1520.436767578125	1121.399536132812	-386.2675476074219	-1531.249267578125	1160.8935546875	-319.8673095703125	-1275.862548828125	1336.026123046875	-299.8079223632812	-1536.160888671875	1315.762939453125	-312.349609375	-1457.925537109375	1600.980224609375	-330.46484375	-1287.761962890625	1475.659057617188	-312.1149597167969	-1539.526733398438	1430.066040039062	-237.3693389892578	-1463.907958984375	1579.982055664062	-432.3014526367188	-1377.895385742188	1552.08984375	-496.9716491699219	-1414.43408203125	1423.12646484375	-564.1084594726562	-1436.062133789062	1205.945922851562	-585.8690185546875	-1497.533813476562	1202.463134765625	-523.6748657226562	-1380.99072265625	933.1943359375	-555.5699462890625	-1467.871459960938	923.4901733398438	-574.49365234375	-1440.841918945312	1089.095947265625	-592.6704711914062	-1405.973022460938	740.376953125	-532.6427001953125	-1454.234375	843.9595947265625	-577.7386474609375	-1384.726928710938	841.7211303710938	-567.3365478515625	-1408.89697265625	1584.158203125	-147.0501861572266	-1431.392822265625	1515.10888671875	-79.69925689697266	-1448.014526367188	1218.920288085938	-44.45745086669922	-1460.281494140625	1214.223754882812	-140.3021850585938	-1291.26806640625	985.0711059570312	-54.71780395507812	-1363.683715820312	963.4016723632812	-20.38698768615723	-1421.584106445312	1146.412963867188	-27.3358154296875	-1251.519409179688	792.8295288085938	-64.28871917724609	-1253.030883789062	879.7386474609375	-45.29433441162109	-1319.676513671875	867.790283203125	-11.88967037200928	-1409.249755859375	1766.925415039062	-258.917236328125	-1261.173583984375	1814.237548828125	-415.8458557128906	-1246.824340820312	1834.4072265625	-288.2344360351562	-1430.764892578125	1750.213134765625	-391.4049682617188	-1416.97998046875	1036.546020507812	-489.622802734375	-1424.221801757812	1006.783630371094	-124.0993881225586	-1333.166748046875	1076.546020507812	-164.6159210205078	-1313.36181640625	1092.813354492188	-427.6376953125	-1238.718627929688	560.11328125	-462.5954895019531	-1311.881469726562	689.2831420898438	-494.3772888183594	-1224.224975585938	43.85621643066406	-467.3300476074219	-1274.080932617188	295.3937683105469	-493.1992492675781	-1000.4267578125	96.00869750976562	-432.3739013671875	-1072.29638671875	78.59932708740234	-391.2057189941406	-1105.453002929688	67.50447082519531	-500.7031555175781	-1285.6083984375	30.25540542602539	-398.5724792480469	-1448.782470703125	513.85888671875	-180.3151245117188	-1411.687622070312	792.7103881835938	-138.4246368408203	-1646.242553710938	30.75887107849121	-217.6090545654297	-1498.133056640625	382.1225891113281	-175.4988861083984	-1412.220458984375	43.04246520996094	-254.1407470703125	-1467.369995117188	28.89915657043457	-297.2047424316406	-1511.759155273438	38.82513046264648	-185.8872222900391	-1700.487915039062	35.83996963500977	-271.8689575195312	
406	4.05	-1540.08203125	1113.182861328125	-251.0379333496094	-1527.69677734375	1121.923706054688	-385.4889831542969	-1538.666015625	1161.702880859375	-319.2242431640625	-1282.603393554688	1337.169677734375	-298.9000854492188	-1543.5654296875	1317.16943359375	-312.8200073242188	-1464.188110351562	1602.07275390625	-330.4115905761719	-1294.339477539062	1476.85205078125	-311.047119140625	-1546.62109375	1431.247680664062	-237.8251647949219	-1469.621215820312	1581.16748046875	-432.2962951660156	-1383.17578125	1553.107421875	-496.4119262695312	-1419.204711914062	1424.019775390625	-563.4926147460938	-1440.723022460938	1206.695434570312	-584.7230224609375	-1502.831420898438	1203.573974609375	-523.14453125	-1387.388061523438	933.6275024414062	-553.0377197265625	-1474.057861328125	924.4772338867188	-572.98193359375	-1445.908813476562	1089.871337890625	-591.2113037109375	-1413.945190429688	741.0452270507812	-529.5930786132812	-1460.913208007812	844.8026733398438	-575.696533203125	-1391.531005859375	842.1187744140625	-564.4859619140625	-1416.427978515625	1585.142211914062	-146.6764373779297	-1439.398071289062	1516.149780273438	-79.5025634765625	-1456.430419921875	1220.151000976562	-43.4813232421875	-1468.21435546875	1215.2265625	-139.3813781738281	-1299.250732421875	986.4620971679688	-52.71309661865234	-1371.7783203125	964.7527465820312	-18.50583839416504	-1429.98095703125	1147.667724609375	-26.06632995605469	-1259.177734375	794.2573852539062	-61.61966705322266	-1260.951171875	881.2181396484375	-42.85614395141602	-1327.63720703125	869.2373657226562	-9.62101936340332	-1415.484497070312	1767.790771484375	-257.8584899902344	-1266.713623046875	1815.42236328125	-414.0494079589844	-1252.803588867188	1835.073364257812	-286.3390502929688	-1436.543090820312	1751.601440429688	-390.5238952636719	-1424.301635742188	1036.916015625	-488.53759765625	-1430.65380859375	1008.393188476562	-123.1274719238281	-1339.919067382812	1078.2255859375	-163.9915924072266	-1320.453002929688	1093.639526367188	-427.0804443359375	-1242.66796875	561.3865356445312	-461.8740844726562	-1317.081420898438	690.3770141601562	-493.44921875	-1234.738647460938	44.71254348754883	-466.3424072265625	-1281.681396484375	296.6124877929688	-491.7290344238281	-1009.775390625	95.06034851074219	-436.5255126953125	-1080.783569335938	78.19100189208984	-393.6972961425781	-1116.592041015625	67.35874176025391	-502.4253234863281	-1294.648193359375	31.78256988525391	-396.2435607910156	-1453.077392578125	515.30078125	-179.8108215332031	-1417.075439453125	794.1998901367188	-137.4888000488281	-1646.282104492188	30.55923461914062	-217.3415374755859	-1501.04296875	383.1707458496094	-175.1078948974609	-1412.425903320312	43.17726516723633	-254.3277435302734	-1467.464599609375	28.87826728820801	-297.2082214355469	-1511.863525390625	38.90252304077148	-185.9751586914062	-1700.589721679688	35.59730911254883	-271.6061706542969	
407	4.06	-1546.7587890625	1114.249877929688	-250.1702880859375	-1534.719970703125	1122.554809570312	-384.7039794921875	-1545.866088867188	1162.548095703125	-318.5508728027344	-1289.183715820312	1338.389038085938	-298.1323852539062	-1550.87841796875	1318.597534179688	-313.2723999023438	-1470.391357421875	1603.202514648438	-330.4177551269531	-1300.8486328125	1478.101806640625	-310.1275329589844	-1553.551879882812	1432.418823242188	-238.3028106689453	-1475.305908203125	1582.40869140625	-432.3417663574219	-1388.451416015625	1554.245239257812	-495.937744140625	-1423.95849609375	1425.04150390625	-562.9881591796875	-1445.26318359375	1207.561645507812	-583.6753540039062	-1508.013671875	1204.773315429688	-522.7092895507812	-1393.480224609375	934.2359619140625	-550.618408203125	-1479.925537109375	925.5609741210938	-571.578857421875	-1450.78369140625	1090.75634765625	-589.858154296875	-1421.461059570312	741.8716430664062	-526.742431640625	-1467.197265625	845.7547607421875	-573.7841796875	-1397.954223632812	842.7024536132812	-561.779296875	-1423.817749023438	1586.156616210938	-146.4012145996094	-1447.2314453125	1517.223510742188	-79.39757537841797	-1464.786865234375	1221.44970703125	-42.61514282226562	-1476.09619140625	1216.301513671875	-138.5780487060547	-1307.403198242188	987.7709350585938	-50.7952995300293	-1380.037231445312	966.1076049804688	-16.70753288269043	-1438.377319335938	1148.978393554688	-24.90332412719727	-1267.176025390625	795.5753173828125	-59.01841735839844	-1269.114135742188	882.5953979492188	-40.49359893798828	-1335.873779296875	870.643310546875	-7.434548854827881	-1421.661743164062	1768.700317382812	-256.9072265625	-1272.167358398438	1816.670654296875	-412.3222045898438	-1258.7138671875	1835.776611328125	-284.5027465820312	-1442.234741210938	1753.053466796875	-389.7554016113281	-1431.376953125	1037.499755859375	-487.5065002441406	-1436.826782226562	1009.939819335938	-122.2102279663086	-1346.390747070312	1079.918212890625	-163.4550933837891	-1327.303100585938	1094.583862304688	-426.571044921875	-1246.442626953125	562.8130493164062	-461.145263671875	-1321.998413085938	691.690185546875	-492.3950805664062	-1246.318603515625	45.68413162231445	-465.4190979003906	-1289.728515625	298.0242614746094	-490.2511901855469	-1020.205871582031	93.72589874267578	-440.4761352539062	-1090.391479492188	77.50590515136719	-396.0874633789062	-1128.775024414062	67.105712890625	-504.0578308105469	-1304.8251953125	33.46825408935547	-394.0627746582031	-1457.385864257812	516.7037353515625	-179.4026031494141	-1422.33935546875	795.628173828125	-136.6750640869141	-1646.328735351562	30.3820743560791	-217.1299285888672	-1504.028564453125	384.2171936035156	-174.7625427246094	-1412.6552734375	43.33926010131836	-254.4831085205078	-1467.596313476562	28.86338233947754	-297.2015686035156	-1512.008544921875	39.00350570678711	-186.0781097412109	-1700.7080078125	35.34915161132812	-271.4035339355469	
